<mxfile host="app.diagrams.net" modified="2024-04-12T13:49:22.681Z" agent="Mozilla/5.0 (Windows NT 10.0; Win64; x64) AppleWebKit/537.36 (KHTML, like Gecko) Chrome/123.0.0.0 Safari/537.36" etag="rrgTPzB9sh6t_WGhtbtV" version="24.2.3" type="device">
  <diagram name="Page-1" id="AO7D_S0gBOkOwGUuk-Gc">
    <mxGraphModel dx="1112" dy="1128" grid="0" gridSize="10" guides="1" tooltips="1" connect="1" arrows="1" fold="1" page="0" pageScale="1" pageWidth="827" pageHeight="1169" math="0" shadow="0">
      <root>
        <mxCell id="0" />
        <mxCell id="1" parent="0" />
        <mxCell id="g30c00iyw8AlDgS7Uhnx-2" value="Centralized" style="text;html=1;align=center;verticalAlign=middle;resizable=0;points=[];autosize=1;strokeColor=none;fillColor=none;fontSize=16;" vertex="1" parent="1">
          <mxGeometry x="-38.5" y="-43.5" width="99" height="31" as="geometry" />
        </mxCell>
        <mxCell id="g30c00iyw8AlDgS7Uhnx-3" value="Centralized Repository" style="text;html=1;align=center;verticalAlign=middle;resizable=0;points=[];autosize=1;strokeColor=none;fillColor=none;fontSize=16;" vertex="1" parent="1">
          <mxGeometry x="-75" y="-14" width="180" height="31" as="geometry" />
        </mxCell>
        <mxCell id="g30c00iyw8AlDgS7Uhnx-4" value="Distributed" style="text;html=1;align=center;verticalAlign=middle;resizable=0;points=[];autosize=1;strokeColor=none;fillColor=none;fontSize=16;" vertex="1" parent="1">
          <mxGeometry x="371" y="-43.5" width="94" height="31" as="geometry" />
        </mxCell>
        <mxCell id="g30c00iyw8AlDgS7Uhnx-5" value="Full Repository" style="text;html=1;align=center;verticalAlign=middle;resizable=0;points=[];autosize=1;strokeColor=none;fillColor=none;fontSize=16;" vertex="1" parent="1">
          <mxGeometry x="355.5" y="-12.5" width="125" height="31" as="geometry" />
        </mxCell>
        <mxCell id="g30c00iyw8AlDgS7Uhnx-6" value="" style="sketch=0;outlineConnect=0;fontColor=#232F3E;gradientColor=none;fillColor=#232F3D;strokeColor=none;dashed=0;verticalLabelPosition=bottom;verticalAlign=top;align=center;html=1;fontSize=12;fontStyle=0;aspect=fixed;pointerEvents=1;shape=mxgraph.aws4.folder;" vertex="1" parent="1">
          <mxGeometry x="-41.730000000000004" y="43" width="105.47" height="96" as="geometry" />
        </mxCell>
        <mxCell id="g30c00iyw8AlDgS7Uhnx-7" value="" style="sketch=0;outlineConnect=0;fontColor=#232F3E;gradientColor=none;fillColor=#232F3D;strokeColor=none;dashed=0;verticalLabelPosition=bottom;verticalAlign=top;align=center;html=1;fontSize=12;fontStyle=0;aspect=fixed;pointerEvents=1;shape=mxgraph.aws4.folder;" vertex="1" parent="1">
          <mxGeometry x="365.27" y="48" width="105.47" height="96" as="geometry" />
        </mxCell>
        <mxCell id="g30c00iyw8AlDgS7Uhnx-17" style="edgeStyle=none;curved=1;rounded=0;orthogonalLoop=1;jettySize=auto;html=1;fontSize=12;startSize=8;endSize=8;" edge="1" parent="1" source="g30c00iyw8AlDgS7Uhnx-8" target="g30c00iyw8AlDgS7Uhnx-6">
          <mxGeometry relative="1" as="geometry" />
        </mxCell>
        <mxCell id="g30c00iyw8AlDgS7Uhnx-8" value="" style="whiteSpace=wrap;html=1;shape=mxgraph.basic.document" vertex="1" parent="1">
          <mxGeometry x="-109.5" y="231" width="71" height="88" as="geometry" />
        </mxCell>
        <mxCell id="g30c00iyw8AlDgS7Uhnx-18" style="edgeStyle=none;curved=1;rounded=0;orthogonalLoop=1;jettySize=auto;html=1;exitX=0.5;exitY=0;exitDx=0;exitDy=0;exitPerimeter=0;fontSize=12;startSize=8;endSize=8;" edge="1" parent="1" source="g30c00iyw8AlDgS7Uhnx-9" target="g30c00iyw8AlDgS7Uhnx-6">
          <mxGeometry relative="1" as="geometry" />
        </mxCell>
        <mxCell id="g30c00iyw8AlDgS7Uhnx-9" value="" style="whiteSpace=wrap;html=1;shape=mxgraph.basic.document" vertex="1" parent="1">
          <mxGeometry x="45" y="231" width="71" height="88" as="geometry" />
        </mxCell>
        <mxCell id="g30c00iyw8AlDgS7Uhnx-10" value="" style="sketch=0;outlineConnect=0;fontColor=#232F3E;gradientColor=none;fillColor=#232F3D;strokeColor=none;dashed=0;verticalLabelPosition=bottom;verticalAlign=top;align=center;html=1;fontSize=12;fontStyle=0;aspect=fixed;pointerEvents=1;shape=mxgraph.aws4.folder;" vertex="1" parent="1">
          <mxGeometry x="243" y="223" width="105.47" height="96" as="geometry" />
        </mxCell>
        <mxCell id="g30c00iyw8AlDgS7Uhnx-11" value="" style="sketch=0;outlineConnect=0;fontColor=#232F3E;gradientColor=none;fillColor=#232F3D;strokeColor=none;dashed=0;verticalLabelPosition=bottom;verticalAlign=top;align=center;html=1;fontSize=12;fontStyle=0;aspect=fixed;pointerEvents=1;shape=mxgraph.aws4.folder;" vertex="1" parent="1">
          <mxGeometry x="489" y="223" width="105.47" height="96" as="geometry" />
        </mxCell>
        <mxCell id="g30c00iyw8AlDgS7Uhnx-19" value="" style="endArrow=none;html=1;rounded=0;fontSize=12;startSize=8;endSize=8;curved=1;" edge="1" parent="1" source="g30c00iyw8AlDgS7Uhnx-10" target="g30c00iyw8AlDgS7Uhnx-7">
          <mxGeometry width="50" height="50" relative="1" as="geometry">
            <mxPoint x="312" y="215" as="sourcePoint" />
            <mxPoint x="362" y="165" as="targetPoint" />
          </mxGeometry>
        </mxCell>
        <mxCell id="g30c00iyw8AlDgS7Uhnx-20" value="" style="endArrow=none;html=1;rounded=0;fontSize=12;startSize=8;endSize=8;curved=1;" edge="1" parent="1" source="g30c00iyw8AlDgS7Uhnx-11" target="g30c00iyw8AlDgS7Uhnx-7">
          <mxGeometry width="50" height="50" relative="1" as="geometry">
            <mxPoint x="506.735" y="200.28932188134524" as="sourcePoint" />
            <mxPoint x="506.735" y="150.28932188134524" as="targetPoint" />
          </mxGeometry>
        </mxCell>
        <mxCell id="g30c00iyw8AlDgS7Uhnx-21" value="" style="endArrow=none;html=1;rounded=0;fontSize=12;startSize=8;endSize=8;curved=1;" edge="1" parent="1" source="g30c00iyw8AlDgS7Uhnx-10" target="g30c00iyw8AlDgS7Uhnx-11">
          <mxGeometry width="50" height="50" relative="1" as="geometry">
            <mxPoint x="380" y="264" as="sourcePoint" />
            <mxPoint x="430" y="214" as="targetPoint" />
          </mxGeometry>
        </mxCell>
        <mxCell id="g30c00iyw8AlDgS7Uhnx-23" value="" style="whiteSpace=wrap;html=1;shape=mxgraph.basic.document" vertex="1" parent="1">
          <mxGeometry x="381" y="91.5" width="24" height="32" as="geometry" />
        </mxCell>
        <mxCell id="g30c00iyw8AlDgS7Uhnx-25" value="" style="outlineConnect=0;dashed=0;verticalLabelPosition=bottom;verticalAlign=top;align=center;html=1;shape=mxgraph.aws3.office_building;fillColor=#7D7C7C;gradientColor=none;" vertex="1" parent="1">
          <mxGeometry x="429" y="86" width="27" height="43" as="geometry" />
        </mxCell>
        <mxCell id="g30c00iyw8AlDgS7Uhnx-28" style="edgeStyle=none;curved=1;rounded=0;orthogonalLoop=1;jettySize=auto;html=1;exitX=1;exitY=0.5;exitDx=0;exitDy=0;exitPerimeter=0;entryX=0;entryY=0.5;entryDx=0;entryDy=0;entryPerimeter=0;fontSize=12;startSize=8;endSize=8;" edge="1" parent="1" source="g30c00iyw8AlDgS7Uhnx-23" target="g30c00iyw8AlDgS7Uhnx-25">
          <mxGeometry relative="1" as="geometry" />
        </mxCell>
        <mxCell id="g30c00iyw8AlDgS7Uhnx-29" value="" style="whiteSpace=wrap;html=1;shape=mxgraph.basic.document" vertex="1" parent="1">
          <mxGeometry x="258.23" y="265.5" width="24" height="32" as="geometry" />
        </mxCell>
        <mxCell id="g30c00iyw8AlDgS7Uhnx-30" value="" style="outlineConnect=0;dashed=0;verticalLabelPosition=bottom;verticalAlign=top;align=center;html=1;shape=mxgraph.aws3.office_building;fillColor=#7D7C7C;gradientColor=none;" vertex="1" parent="1">
          <mxGeometry x="306.23" y="260" width="27" height="43" as="geometry" />
        </mxCell>
        <mxCell id="g30c00iyw8AlDgS7Uhnx-31" style="edgeStyle=none;curved=1;rounded=0;orthogonalLoop=1;jettySize=auto;html=1;exitX=1;exitY=0.5;exitDx=0;exitDy=0;exitPerimeter=0;entryX=0;entryY=0.5;entryDx=0;entryDy=0;entryPerimeter=0;fontSize=12;startSize=8;endSize=8;" edge="1" parent="1" source="g30c00iyw8AlDgS7Uhnx-29" target="g30c00iyw8AlDgS7Uhnx-30">
          <mxGeometry relative="1" as="geometry" />
        </mxCell>
        <mxCell id="g30c00iyw8AlDgS7Uhnx-32" value="" style="whiteSpace=wrap;html=1;shape=mxgraph.basic.document" vertex="1" parent="1">
          <mxGeometry x="504.23" y="265.5" width="24" height="32" as="geometry" />
        </mxCell>
        <mxCell id="g30c00iyw8AlDgS7Uhnx-33" value="" style="outlineConnect=0;dashed=0;verticalLabelPosition=bottom;verticalAlign=top;align=center;html=1;shape=mxgraph.aws3.office_building;fillColor=#7D7C7C;gradientColor=none;" vertex="1" parent="1">
          <mxGeometry x="552.23" y="260" width="27" height="43" as="geometry" />
        </mxCell>
        <mxCell id="g30c00iyw8AlDgS7Uhnx-34" style="edgeStyle=none;curved=1;rounded=0;orthogonalLoop=1;jettySize=auto;html=1;exitX=1;exitY=0.5;exitDx=0;exitDy=0;exitPerimeter=0;entryX=0;entryY=0.5;entryDx=0;entryDy=0;entryPerimeter=0;fontSize=12;startSize=8;endSize=8;" edge="1" parent="1" source="g30c00iyw8AlDgS7Uhnx-32" target="g30c00iyw8AlDgS7Uhnx-33">
          <mxGeometry relative="1" as="geometry" />
        </mxCell>
        <mxCell id="g30c00iyw8AlDgS7Uhnx-35" value="Working Copy" style="text;html=1;align=center;verticalAlign=middle;resizable=0;points=[];autosize=1;strokeColor=none;fillColor=none;fontSize=16;" vertex="1" parent="1">
          <mxGeometry x="-133" y="340" width="118" height="31" as="geometry" />
        </mxCell>
        <mxCell id="g30c00iyw8AlDgS7Uhnx-36" value="Working Copy" style="text;html=1;align=center;verticalAlign=middle;resizable=0;points=[];autosize=1;strokeColor=none;fillColor=none;fontSize=16;" vertex="1" parent="1">
          <mxGeometry x="21.5" y="340" width="118" height="31" as="geometry" />
        </mxCell>
        <mxCell id="g30c00iyw8AlDgS7Uhnx-37" value="Full Repository" style="text;html=1;align=center;verticalAlign=middle;resizable=0;points=[];autosize=1;strokeColor=none;fillColor=none;fontSize=16;" vertex="1" parent="1">
          <mxGeometry x="233.73" y="340" width="125" height="31" as="geometry" />
        </mxCell>
        <mxCell id="g30c00iyw8AlDgS7Uhnx-38" value="Full Repository" style="text;html=1;align=center;verticalAlign=middle;resizable=0;points=[];autosize=1;strokeColor=none;fillColor=none;fontSize=16;" vertex="1" parent="1">
          <mxGeometry x="479.23" y="340" width="125" height="31" as="geometry" />
        </mxCell>
      </root>
    </mxGraphModel>
  </diagram>
</mxfile>
